<?xml version="1.0" standalone="no"?> <!DOCTYPE svg PUBLIC "-//W3C//DTD SVG 1.0//EN" "http://www.w3.org/TR/2001/REC-SVG-20010904/DTD/svg10.dtd" > <svg xmlns="http://www.w3.org/2000/svg" width="100%" height="100%">
<defs >
<font id="CPMono_v07Plain" horiz-adv-x="650" ><font-face
    font-family="CPMono_v07 Plain"
    units-per-em="1000"
    panose-1="2 0 5 9 3 0 0 2 0 4"
    ascent="907"
    descent="-240"
    alphabetic="0" />
<missing-glyph d="M33 0V666H298V0H33ZM66 33H265V633H66V33Z" />
<glyph unicode=" " glyph-name="space" />
<glyph unicode="!" glyph-name="exclam" d="M375 173H274V684H375V173ZM382 0H267V110H382V0Z" />
<glyph unicode="&quot;" glyph-name="quotedbl" d="M287 564H192V776H287V564ZM457 564H362V776H457V564Z" />
<glyph unicode="#" glyph-name="numbersign" d="M370 0V133H274V0H181V133H60V215H181V316H60V401H181V528H274V401H370V528H464V401H587V316H464V215H587V133H464V0H370ZM269 321V210H375V321H269Z" />
<glyph unicode="$" glyph-name="dollar" d="M279 -79V0H235Q82 0 82 146V164L183 191V165Q183 126 199 110T259 94H390Q434 94 450 110T466 165V231Q466 270 450 286T390 302H241Q159 302 121 338T82 451V535Q82 609 124 646T235 684H279V762H370V684H414Q567
684 567 538V522L466 495V520Q466 559 450 575T390 591H259Q215 591 199 575T183 520V464Q183 425 199 409T259 393H408Q491 393 529 358T567 245V148Q567 74 526 37T414 0H370V-79H279Z" />
<glyph unicode="%" glyph-name="percent" d="M456 -48H384Q341 -48 316 -24T290 40V172Q290 211 315 235T384 260H456Q499 260 524 236T550 172V40Q550 1 525 -23T456 -48ZM398 16H442Q482 16 482 56V158Q482 197 442 197H398Q358 197 358 158V56Q358 16 398 16ZM265
423H193Q150 423 125 447T99 511V644Q99 683 124 707T193 732H265Q308 732 333 708T359 644V511Q359 472 334 448T265 423ZM207 488H251Q291 488 291 527V629Q291 668 251 668H207Q167 668 167 629V527Q167 488 207 488ZM99 209V277L550 475V407L99 209Z" />
<glyph unicode="&amp;" glyph-name="ampersand" d="M256 388V305H204Q161 305 145 289T128 234V165Q128 126 144 110T204 94H350Q394 94 410 110T426 165V308H326V385H421V455L522 478V385H625V308H522V146Q522 70 482 35T358 0H191Q107 0 67 35T27 146V231Q27
326 104 347Q27 367 27 463V538Q27 614 67 649T191 684H358Q522 684 522 544V538L421 515V525Q421 561 406 576T350 591H204Q160 591 144 575T128 520V460Q128 421 144 405T204 388H256Z" />
<glyph unicode="&apos;" glyph-name="quotesingle" d="M372 564H277V776H372V564Z" />
<glyph unicode="(" glyph-name="parenleft" d="M449 805V710H380Q337 710 321 694T304 639V-4Q304 -43 320 -59T380 -75H449V-170H368Q284 -170 244 -135T203 -24V659Q203 735 243 770T368 805H449Z" />
<glyph unicode=")" glyph-name="parenright" d="M201 710V805H282Q366 805 406 770T446 659V-24Q446 -100 406 -135T282 -170H201V-75H269Q313 -75 329 -59T345 -4V639Q345 678 329 694T269 710H201Z" />
<glyph unicode="*" glyph-name="asterisk" d="M543 667L402 588V586L565 494L503 438L365 520L363 519L365 332L284 358L286 518L284 520L124 425L106 507L247 586V588L84 680L146 736L284 654L286 655L284 842L365 816L363 655L365 654L525 749L543 667Z" />
<glyph unicode="+" glyph-name="plus" d="M95 354H278V542H379V354H562V261H379V73H278V261H95V354Z" />
<glyph unicode="," glyph-name="comma" d="M265 0V112H385V-11Q385 -58 362 -86T292 -114H269L251 -67H272Q295 -67 308 -52T321 -12V0H265Z" />
<glyph unicode="-" glyph-name="hyphen" d="M491 261H159V354H491V261Z" />
<glyph unicode="." glyph-name="period" d="M385 0H265V112H385V0Z" />
<glyph unicode="/" glyph-name="slash" d="M126 -91L422 760H523L226 -91H126Z" />
<glyph unicode="0" glyph-name="zero" d="M406 0H243Q159 0 119 35T79 146V538Q79 614 119 649T243 684H406Q490 684 530 649T570 538V146Q570 70 530 35T406 0ZM257 94H392Q436 94 452 110T469 165V520Q469 559 453 575T392 591H257Q213 591 197 575T180 520V165Q180
126 196 110T257 94Z" />
<glyph unicode="1" glyph-name="one" d="M413 684V94H599V0H120V94H312V591H144V684H413Z" />
<glyph unicode="2" glyph-name="two" d="M592 0H68V81L433 411Q455 431 461 446T467 489V520Q467 559 451 575T391 591H255Q211 591 195 575T179 520V480L78 507V538Q78 614 118 649T242 684H404Q487 684 527 649T568 538V482Q568 440 554 411T507 352L225 96V94H592V0Z" />
<glyph unicode="3" glyph-name="three" d="M79 168L180 195V165Q180 126 196 110T257 94H392Q436 94 452 110T469 165V231Q469 270 453 286T392 302H256V392H392Q436 392 452 408T469 464V520Q469 559 453 575T392 591H257Q213 591 197 575T180 520V490L79 517V538Q79
614 119 649T243 684H406Q489 684 529 649T570 538V463Q570 367 493 347Q570 326 570 231V146Q570 70 530 35T406 0H243Q159 0 119 35T79 146V168Z" />
<glyph unicode="4" glyph-name="four" d="M624 169H507V0H406V169H45V259L385 684H507V262H624V169ZM406 262V557L166 262H406Z" />
<glyph unicode="5" glyph-name="five" d="M573 281V146Q573 70 533 35T409 0H257Q173 0 133 35T93 146V168L194 185V165Q194 126 210 110T270 94H396Q440 94 456 110T472 165V266Q472 305 456 321T396 337H274Q230 337 212 323T194 278H93V684H566V591H194V397Q225
428 302 428H412Q573 428 573 281Z" />
<glyph unicode="6" glyph-name="six" d="M580 263V146Q580 70 540 35T416 0H253Q169 0 129 35T89 146V538Q89 614 128 649T251 684H416Q499 684 539 649T580 538V522L479 498V520Q479 559 463 575T402 591H267Q223 591 207 575T190 520V382Q213 413 298 413H418Q504
413 542 377T580 263ZM479 165V251Q479 290 463 306T402 322H271Q226 322 208 308T190 260V165Q190 126 206 110T267 94H402Q446 94 462 110T479 165Z" />
<glyph unicode="7" glyph-name="seven" d="M567 595L305 0H192L459 591H82V684H567V595Z" />
<glyph unicode="8" glyph-name="eight" d="M567 231V146Q567 70 527 35T403 0H246Q162 0 122 35T82 146V231Q82 325 154 347Q82 367 82 463V538Q82 614 122 649T246 684H403Q486 684 526 649T567 538V463Q567 367 495 347Q567 325 567 231ZM466 463V520Q466 559
450 575T390 591H259Q215 591 199 575T183 520V463Q183 424 199 408T258 392H391Q434 392 450 408T466 463ZM466 165V230Q466 268 450 284T391 301H258Q216 301 200 285T183 230V165Q183 126 199 110T259 94H390Q434 94 450 110T466 165Z" />
<glyph unicode="9" glyph-name="nine" d="M69 425V538Q69 614 109 649T233 684H396Q479 684 519 649T560 538V146Q560 70 520 35T396 0H233Q150 0 110 35T69 146V159L170 188V165Q170 126 186 110T247 94H382Q426 94 442 110T459 165V306Q439 279 349 279H226Q140
279 105 313T69 425ZM170 520V441Q170 402 186 386T247 370H382Q425 370 442 384T459 431V520Q459 559 443 575T382 591H247Q203 591 187 575T170 520Z" />
<glyph unicode=":" glyph-name="colon" d="M385 379H265V491H385V379ZM385 0H265V112H385V0Z" />
<glyph unicode=";" glyph-name="semicolon" d="M265 0V112H385V-11Q385 -58 362 -86T292 -114H269L251 -67H272Q295 -67 308 -52T321 -12V0H265ZM385 379H265V491H385V379Z" />
<glyph unicode="&lt;" glyph-name="less" d="M528 549V446L244 309V307L528 169V67L121 269V346L528 549Z" />
<glyph unicode="=" glyph-name="equal" d="M537 161H113V253H537V161ZM537 361H113V453H537V361Z" />
<glyph unicode="&gt;" glyph-name="greater" d="M121 446V549L528 346V269L121 67V169L405 307V309L121 446Z" />
<glyph unicode="?" glyph-name="question" d="M333 173H232V264Q232 398 362 398H385Q428 398 444 413T461 466V520Q461 559 445 575T385 591H244Q200 591 184 575T168 520V480L67 507V538Q67 614 107 649T231 684H393Q562 684 562 535V451Q562 378 527 343T428
307H407Q364 307 349 292T333 238V173ZM340 0H225V110H340V0Z" />
<glyph unicode="@" glyph-name="at" d="M629 -98L603 -170H168Q14 -170 14 -32V390Q14 528 168 528H486Q562 528 598 496T635 395V141Q635 67 614 34T528 0H501Q425 0 409 52H407Q380 0 310 0H272Q219 0 197 26T175 107V254Q175 309 197 335T272 361H310Q376 361
401 311H403L410 357H471V118Q471 86 479 76T515 65Q543 65 551 75T559 122V379Q559 420 541 437T476 455H179Q132 455 111 435T90 374V-17Q90 -58 111 -78T179 -98H629ZM251 229V134Q251 101 261 88T300 75H328Q360 75 377 97T395 153V211Q395 244 378 266T328
289H300Q272 289 262 276T251 229Z" />
<glyph unicode="A" glyph-name="A" d="M377 684L603 172V0H502V155L475 212H174L148 155V0H47V172L273 684H377ZM323 568L206 302H443L327 568H323Z" />
<glyph unicode="B" glyph-name="B" d="M89 0V684H406Q490 684 530 649T570 538V464Q570 369 493 348Q570 328 570 232V146Q570 70 530 35T406 0H89ZM190 393H392Q436 393 452 410T469 466V520Q469 559 453 575T392 591H190V393ZM190 94H392Q436 94 452 110T469
165V231Q469 270 453 286T392 302H190V94Z" />
<glyph unicode="C" glyph-name="C" d="M572 191V146Q572 70 532 35T408 0H243Q159 0 119 35T79 146V538Q79 614 119 649T243 684H408Q491 684 531 649T572 538V497L471 470V520Q471 559 455 575T395 591H257Q213 591 197 575T180 520V165Q180 126 196 110T257
94H395Q439 94 455 110T471 165V221L572 191Z" />
<glyph unicode="D" glyph-name="D" d="M572 538V146Q572 69 533 35T411 0H77V684H411Q494 684 533 650T572 538ZM471 165V520Q471 559 455 575T395 591H178V94H395Q439 94 455 110T471 165Z" />
<glyph unicode="E" glyph-name="E" d="M558 0H96V684H558V591H197V395H500V304H197V94H558V0Z" />
<glyph unicode="F" glyph-name="F" d="M581 591H209V379H527V288H209V0H108V684H581V591Z" />
<glyph unicode="G" glyph-name="G" d="M571 374V146Q571 70 531 35T407 0H242Q158 0 118 35T78 146V538Q78 614 118 649T242 684H412Q495 684 533 650T571 538V512L470 485V520Q470 559 454 575T394 591H255Q211 591 195 575T179 520V165Q179 126 195 110T254
94H400Q443 94 458 109T473 162V294H339V374H571Z" />
<glyph unicode="H" glyph-name="H" d="M581 0H480V302H169V0H68V684H169V393H480V684H581V0Z" />
<glyph unicode="I" glyph-name="I" d="M84 0V94H274V591H96V684H554V591H375V94H565V0H84Z" />
<glyph unicode="J" glyph-name="J" d="M113 591V684H557V146Q557 70 517 35T393 0H241Q157 0 117 35T77 146V214L178 243V165Q178 126 194 110T254 94H380Q424 94 440 110T456 165V591H113Z" />
<glyph unicode="K" glyph-name="K" d="M572 0H474V169L302 339L178 213V0H77V684H178V354H181L478 684H609L365 415L572 212V0Z" />
<glyph unicode="L" glyph-name="L" d="M582 0H95V684H196V94H582V0Z" />
<glyph unicode="M" glyph-name="M" d="M603 0H502V505H498L357 240H293L151 505H148V0H47V684H153L325 371L496 684H603V0Z" />
<glyph unicode="N" glyph-name="N" d="M580 0H482L175 490H170V0H69V684H166L474 187H479V684H580V0Z" />
<glyph unicode="O" glyph-name="O" d="M418 0H231Q147 0 107 35T67 146V538Q67 614 107 649T231 684H418Q502 684 542 649T582 538V146Q582 70 542 35T418 0ZM244 94H405Q449 94 465 110T481 165V520Q481 559 465 575T405 591H244Q200 591 184 575T168 520V165Q168
126 184 110T244 94Z" />
<glyph unicode="P" glyph-name="P" d="M585 538V430Q585 354 545 319T421 284H208V0H107V684H421Q504 684 544 649T585 538ZM484 451V520Q484 559 468 575T407 591H208V375H407Q450 375 467 393T484 451Z" />
<glyph unicode="Q" glyph-name="Q" d="M519 -117L405 0H235Q151 0 111 35T71 146V538Q71 614 111 649T235 684H413Q497 684 537 649T577 538V146Q577 45 500 21L638 -117H519ZM249 94H399Q443 94 459 110T476 165V520Q476 559 460 575T399 591H249Q205 591 189
575T172 520V165Q172 126 188 110T249 94Z" />
<glyph unicode="R" glyph-name="R" d="M572 0H471V132L362 284H192V0H91V684H408Q491 684 531 649T572 538V438Q572 323 464 307L572 157V0ZM192 375H395Q439 375 455 391T471 446V520Q471 559 455 575T395 591H192V375Z" />
<glyph unicode="S" glyph-name="S" d="M183 191V165Q183 126 199 110T259 94H390Q434 94 450 110T466 165V231Q466 270 450 286T390 302H241Q159 302 121 338T82 451V535Q82 684 251 684H403Q486 684 526 649T567 538V522L466 495V520Q466 559 450 575T390 591H259Q215
591 199 575T183 520V464Q183 425 199 409T259 393H408Q491 393 529 358T567 245V148Q567 0 398 0H246Q162 0 122 35T82 146V164L183 191Z" />
<glyph unicode="T" glyph-name="T" d="M604 591H375V0H274V591H46V684H604V591Z" />
<glyph unicode="U" glyph-name="U" d="M572 684V146Q572 70 532 35T408 0H241Q157 0 117 35T77 146V684H178V165Q178 126 194 110T256 94H395Q439 94 455 110T471 165V684H572Z" />
<glyph unicode="V" glyph-name="V" d="M598 506L379 0H270L52 506V684H153V520L323 116H326L497 520V684H598V506Z" />
<glyph unicode="W" glyph-name="W" d="M292 445H358L447 171H453L520 537V684H613V516L513 0H421L327 274H322L228 0H136L36 516V684H130V537L197 171H202L292 445Z" />
<glyph unicode="X" glyph-name="X" d="M325 413L461 546V684H562V513L392 354L583 171V0H482V137L325 290L167 137V0H66V171L257 354L87 513V684H188V546L325 413Z" />
<glyph unicode="Y" glyph-name="Y" d="M588 497L376 298V0H275V298L62 497V684H163V535L325 379L487 535V684H588V497Z" />
<glyph unicode="Z" glyph-name="Z" d="M576 0H72V88L438 591H89V684H564V595L199 94H576V0Z" />
<glyph unicode="[" glyph-name="bracketleft" d="M449 -170H203V805H449V710H304V-75H449V-170Z" />
<glyph unicode="\" glyph-name="backslash" d="M226 760L523 -91H422L126 760H226Z" />
<glyph unicode="]" glyph-name="bracketright" d="M201 805H446V-170H201V-75H345V710H201V805Z" />
<glyph unicode="^" glyph-name="asciicircum" d="M76 428L291 710H358L574 428H460L325 609L189 428H76Z" />
<glyph unicode="_" glyph-name="underscore" d="M622 0H28V95H622V0Z" />
<glyph unicode="`" glyph-name="grave" d="M323 617L227 739H325L422 617H323Z" />
<glyph unicode="a" glyph-name="a" d="M538 0H442V42H440Q402 0 309 0H238Q163 0 127 32T90 139V186Q90 259 126 291T238 324H304Q400 324 440 284H442V368Q442 410 425 427T363 445H278Q237 445 222 430T206 381V367L110 392V402Q110 528 270 528H372Q538 528
538 372V0ZM337 244H263Q221 244 204 230T186 178V150Q186 113 203 99T263 84H337Q442 84 442 146V182Q442 244 337 244Z" />
<glyph unicode="b" glyph-name="b" d="M393 435H323Q274 435 244 414T213 349V180Q213 136 243 115T323 94H393Q439 94 458 114T477 181V348Q477 395 458 415T393 435ZM213 47V0H112V684H213V481H216Q252 528 346 528H431Q578 528 578 377V151Q578 0 431 0H346Q252
0 216 47H213Z" />
<glyph unicode="c" glyph-name="c" d="M196 364V165Q196 126 212 110T273 94H376Q420 94 436 110T452 165V195L553 165V146Q553 70 513 35T389 0H259Q175 0 135 35T95 146V382Q95 458 135 493T259 528H389Q472 528 512 493T553 382V356L452 329V364Q452 403 436
419T376 435H273Q229 435 213 419T196 364Z" />
<glyph unicode="d" glyph-name="d" d="M326 435H257Q211 435 192 415T173 348V181Q173 134 192 114T257 94H326Q375 94 405 115T436 180V349Q436 393 406 414T326 435ZM436 0V47H434Q398 0 303 0H219Q72 0 72 151V377Q72 528 219 528H303Q398 528 434 481H436V684H537V0H436Z"
/>
<glyph unicode="e" glyph-name="e" d="M548 375V233H197V156Q197 117 213 101T273 84H374Q418 84 435 98T452 150V178L548 159V135Q548 62 507 31T379 0H265Q181 0 141 35T101 146V382Q101 458 141 493T265 528H384Q548 528 548 375ZM197 374V310H452V373Q452
412 437 428T376 445H273Q227 445 212 429T197 374Z" />
<glyph unicode="f" glyph-name="f" d="M60 324V415H215V538Q215 614 255 649T379 684H573L549 591H393Q349 591 333 575T316 520V415H530V324H316V0H215V324H60Z" />
<glyph unicode="g" glyph-name="g" d="M446 528H547V-94Q547 -240 376 -240H245Q162 -240 122 -206T82 -97V-82L183 -55V-79Q183 -118 199 -134T259 -150H369Q413 -150 429 -134T446 -79V47H444Q408 0 313 0H229Q82 0 82 151V377Q82 528 229 528H313Q408 528 444
481H446V528ZM267 94H336Q385 94 415 115T446 180V349Q446 393 416 414T336 435H267Q221 435 202 415T183 348V181Q183 134 202 114T267 94Z" />
<glyph unicode="h" glyph-name="h" d="M552 0H451V348Q451 395 432 415T367 435H298Q249 435 219 414T188 349V0H87V684H188V481H190Q226 528 321 528H405Q552 528 552 377V0Z" />
<glyph unicode="i" glyph-name="i" d="M96 0V94H304V435H117V528H405V94H583V0H96ZM405 638H295V736H405V638Z" />
<glyph unicode="j" glyph-name="j" d="M510 528V-94Q510 -240 338 -240H250Q167 -240 127 -206T87 -97V-42L188 -13V-79Q188 -118 204 -134T264 -150H331Q375 -150 392 -134T409 -79V435H174V528H510ZM510 638H400V736H510V638Z" />
<glyph unicode="k" glyph-name="k" d="M540 0H439V145L307 270L181 154V0H80V684H181V276H182L443 528H580L374 337L540 178V0Z" />
<glyph unicode="l" glyph-name="l" d="M91 0V94H299V591H112V684H400V94H578V0H91Z" />
<glyph unicode="m" glyph-name="m" d="M43 0V528H125V468H127Q150 528 226 528H268Q311 528 330 512T355 468H356Q364 492 389 510T457 528H498Q558 528 582 495T607 387V0H517V373Q517 410 507 424T468 438H436Q408 438 389 418T369 353V0H281V378Q281 411 271
424T233 438H200Q133 438 133 353V0H43Z" />
<glyph unicode="n" glyph-name="n" d="M555 0H454V349Q454 395 435 415T370 435H305Q256 435 226 414T195 349V0H94V528H195V481H198Q234 528 328 528H408Q555 528 555 377V0Z" />
<glyph unicode="o" glyph-name="o" d="M392 0H257Q173 0 133 35T93 146V382Q93 458 133 493T257 528H392Q475 528 515 493T556 382V146Q556 70 516 35T392 0ZM271 94H379Q423 94 439 110T455 165V364Q455 403 439 419T379 435H271Q227 435 211 419T194 364V165Q194
126 210 110T271 94Z" />
<glyph unicode="p" glyph-name="p" d="M203 528V481H205Q241 528 336 528H420Q567 528 567 377V151Q567 0 420 0H336Q241 0 205 47H203V-221H102V528H203ZM313 94H382Q428 94 447 114T466 181V348Q466 395 447 415T382 435H313Q264 435 234 414T203 349V180Q203
136 233 115T313 94Z" />
<glyph unicode="q" glyph-name="q" d="M446 481V528H547V-221H446V47H444Q408 0 313 0H229Q82 0 82 151V377Q82 528 229 528H313Q408 528 444 481H446ZM267 94H336Q385 94 415 115T446 180V349Q446 393 416 414T336 435H267Q221 435 202 415T183 348V181Q183 134
202 114T267 94Z" />
<glyph unicode="r" glyph-name="r" d="M580 336L479 309V351Q479 398 462 416T398 435H338Q289 435 259 414T228 349V0H127V528H228V481H230Q266 528 361 528H433Q580 528 580 377V336Z" />
<glyph unicode="s" glyph-name="s" d="M200 170V147Q200 112 215 98T275 84H372Q416 84 432 97T449 146V167Q449 202 431 216T365 231H263Q176 231 140 261T104 366V390Q104 464 146 496T272 528H388Q475 528 510 497T545 403V395L449 369V384Q449 419 435 432T374
445H277Q234 445 217 432T200 385V373Q200 338 217 325T284 311H381Q467 311 506 277T545 170V137Q545 64 503 32T377 0H261Q174 0 139 31T104 127V146L200 170Z" />
<glyph unicode="t" glyph-name="t" d="M52 437V528H225V684H326V528H545V437H326V165Q326 126 342 110T402 94H540L557 0H389Q305 0 265 34T225 144V437H52Z" />
<glyph unicode="u" glyph-name="u" d="M92 528H193V181Q193 134 212 114T277 94H346Q395 94 425 115T456 180V528H557V0H456V47H454Q418 0 323 0H239Q92 0 92 151V528Z" />
<glyph unicode="v" glyph-name="v" d="M466 528H567V350L379 0H270L83 350V528H184V367L323 104H326L466 367V528Z" />
<glyph unicode="w" glyph-name="w" d="M295 422H354L451 151H455L516 369V528H612V361L506 0H419L327 256H323L230 0H144L37 361V528H133V369L194 151H198L295 422Z" />
<glyph unicode="x" glyph-name="x" d="M325 330L439 429V528H540V399L393 276L558 137V0H457V106L325 217L192 106V0H91V137L257 276L110 399V528H211V429L325 330Z" />
<glyph unicode="y" glyph-name="y" d="M459 528H560V-94Q560 -240 388 -240H253Q170 -240 130 -206T89 -97V-82L190 -55V-79Q190 -118 206 -134T267 -150H381Q425 -150 442 -134T459 -79V47H456Q420 0 326 0H236Q89 0 89 151V528H190V181Q190 134 209 114T274
94H349Q398 94 428 115T459 180V528Z" />
<glyph unicode="z" glyph-name="z" d="M563 0H86V82L414 436V438H106V528H550V446L225 93V91H563V0Z" />
<glyph unicode="{" glyph-name="braceleft" d="M490 -170H420Q336 -170 296 -135T256 -24V231Q256 270 240 286T180 302H162V392H180Q223 392 239 408T256 463V659Q256 735 296 770T420 805H489V710H434Q390 710 374 694T357 639V458Q357 405 342 381T290 348V345Q327
336 342 312T357 236V-4Q357 -43 373 -59T434 -75H490V-170Z" />
<glyph unicode="|" glyph-name="bar" d="M274 -91V760H375V-91H274Z" />
<glyph unicode="}" glyph-name="braceright" d="M159 805H229Q312 805 352 770T393 659V463Q393 424 409 408T469 392H487V302H469Q426 302 410 286T393 231V-24Q393 -100 353 -135T229 -170H160V-75H215Q259 -75 275 -59T292 -4V236Q292 288 307 312T359 345V348Q322
357 307 381T292 458V639Q292 678 276 694T215 710H159V805Z" />
<glyph unicode="~" glyph-name="asciitilde" d="M454 598H548Q548 526 513 481T407 436Q370 436 342 454T292 489T248 507Q196 507 196 438H101Q101 510 137 555T243 600Q280 600 308 582T358 547T401 529Q454 529 454 598Z" />
<glyph unicode="&#xa0;" glyph-name="nbspace" />
<glyph unicode="&#xa1;" glyph-name="exclamdown" d="M275 355H376V-156H275V355ZM268 528H383V418H268V528Z" />
<glyph unicode="&#xa2;" glyph-name="cent" d="M282 -80V0H245Q92 0 92 146V382Q92 528 245 528H282V608H368V528H404Q557 528 557 382V356L456 329V364Q456 403 440 419T380 435H269Q225 435 209 419T193 364V165Q193 126 209 110T269 94H380Q424 94 440 110T456
165V195L557 165V146Q557 0 404 0H368V-80H282Z" />
<glyph unicode="&#xa3;" glyph-name="sterling" d="M591 94V0H111V297H20V388H111V538Q111 614 151 649T275 684H442Q525 684 565 649T606 538V515L505 488V520Q505 559 489 575T429 591H288Q244 591 228 575T212 520V388H422L397 297H212V94H591Z" />
<glyph unicode="&#xa5;" glyph-name="yen" d="M127 265L102 332H247V333L62 497V684H163V536L325 379L487 536V684H588V497L402 333V332H542L517 265H375V211H496L471 144H375V0H274V144H174L149 211H274V265H127Z" />
<glyph unicode="&#xa7;" glyph-name="section" d="M470 581V604Q470 642 454 657T394 672H266Q222 672 206 657T190 604V575Q190 537 206 522T266 507H409Q492 507 531 473T571 366V325Q571 234 506 205Q539 191 555 165T571 91V52Q571 -91 402 -91H253Q89 -91
89 45V62L190 89V67Q190 29 206 14T266 -1H394Q438 -1 454 14T470 67V96Q470 134 454 149T394 164H251Q168 164 129 198T89 305V346Q89 437 154 466Q121 480 105 506T89 580V616Q89 760 258 760H407Q571 760 571 624V608L470 581ZM394 422H266Q222 422 206 407T190
353V318Q190 280 206 265T266 249H394Q438 249 454 264T470 317V353Q470 391 454 406T394 422Z" />
<glyph unicode="&#xa8;" glyph-name="dieresis" d="M282 628H184V713H282V628ZM465 628H368V713H465V628Z" />
<glyph unicode="&#xa9;" glyph-name="copyright" d="M466 0H183Q99 0 59 35T19 146V538Q19 614 59 649T183 684H466Q550 684 590 649T630 538V146Q630 70 590 35T466 0ZM192 80H457Q505 80 525 101T546 168V515Q546 561 526 582T457 604H192Q144 604 124 583T103
515V168Q103 122 123 101T192 80ZM245 405V279Q245 249 256 238T300 226H353Q385 226 396 237T407 279V312L468 295V269Q468 209 445 185T356 161H292Q227 161 205 185T182 274V415Q182 475 205 499T292 524H359Q423 524 445 501T468 418V396L407 379V405Q407 435
396 447T353 459H300Q267 459 256 447T245 405Z" />
<glyph unicode="&#xaa;" glyph-name="ordfeminine" d="M483 382H407V419H404Q383 379 318 379H263Q211 379 189 401T167 471V499Q167 547 189 569T263 591H321Q375 591 404 562H407V617Q407 645 398 655T362 666H292Q267 666 258 657T249 625V620L176 635V642Q176
723 271 723H381Q483 723 483 629V382ZM341 537H285Q259 537 249 528T238 495V478Q238 455 248 446T285 436H340Q406 436 406 483V496Q406 537 341 537Z" />
<glyph unicode="&#xab;" glyph-name="guillemotleft" d="M198 80H97L225 297L97 514H198L328 297L198 80ZM426 80H324L452 297L324 514H426L556 297L426 80Z" />
<glyph unicode="&#xac;" glyph-name="logicalnot" d="M453 83V261H93V354H557V83H453Z" />
<glyph unicode="&#xae;" glyph-name="registered" d="M450 302H198Q126 302 92 332T58 427V717Q58 783 92 813T198 843H450Q523 843 557 813T591 717V427Q591 362 557 332T450 302ZM205 367H444Q486 367 503 383T520 438V707Q520 744 503 761T444 778H205Q162
778 146 761T129 707V438Q129 400 145 384T205 367ZM444 430H391V477L346 538H267V430H214V713H377Q444 713 444 657V601Q444 579 432 565T400 547V546L444 489V430ZM267 581H361Q378 581 384 587T391 608V640Q391 668 361 668H267V581Z" />
<glyph unicode="&#xaf;" glyph-name="overscore" d="M471 634H179V707H471V634Z" />
<glyph unicode="&#xb0;" glyph-name="degree" d="M229 668T229 626T256 557T325 530T393 557T420 626T394 694T325 721T256 695ZM141 547T141 626T193 756T325 807T457 756T509 626T457 496T325 444T193 495Z" />
<glyph unicode="&#xb1;" glyph-name="plusminus" d="M104 472H274V641H375V472H546V380H375V211H274V380H104V472ZM546 55H104V148H546V55Z" />
<glyph unicode="&#xb4;" glyph-name="acute" d="M422 739L326 617H227L324 739H422Z" />
<glyph unicode="&#xb5;" glyph-name="mu" d="M100 -170V528H201V180Q201 136 231 115T311 94H381Q427 94 446 114T465 181V528H566V151Q566 0 419 0H334Q240 0 204 47H201V-170H100Z" />
<glyph unicode="&#xb7;" glyph-name="middot" d="M385 261H265V373H385V261Z" />
<glyph unicode="&#xb8;" glyph-name="cedilla" d="M355 -35H436V-65Q436 -120 411 -145T321 -170H214L242 -104H303Q334 -104 344 -93T355 -53V-35Z" />
<glyph unicode="&#xba;" glyph-name="ordmasculine" d="M382 363H267Q165 363 165 450V636Q165 723 267 723H382Q484 723 484 636V450Q484 363 382 363ZM280 426H369Q410 426 410 461V626Q410 661 369 661H280Q239 661 239 626V461Q239 426 280 426Z" />
<glyph unicode="&#xbb;" glyph-name="guillemotright" d="M325 80H224L94 297L224 514H325L197 297L325 80ZM553 80H451L321 297L451 514H553L426 297L553 80Z" />
<glyph unicode="&#xbf;" glyph-name="questiondown" d="M316 341H417V250Q417 116 287 116H264Q221 116 205 101T188 48V-6Q188 -45 204 -61T264 -77H405Q449 -77 465 -61T481 -6V34L582 7V-24Q582 -100 542 -135T418 -170H256Q87 -170 87 -21V63Q87 136 122 171T221
207H242Q285 207 300 222T316 276V341ZM309 514H424V404H309V514Z" />
<glyph unicode="&#xc0;" glyph-name="Agrave" d="M377 684L603 172V0H502V155L475 212H174L148 155V0H47V172L273 684H377ZM323 568L206 302H443L327 568H323ZM293 743L197 865H295L392 743H293Z" />
<glyph unicode="&#xc1;" glyph-name="Aacute" d="M377 684L603 172V0H502V155L475 212H174L148 155V0H47V172L273 684H377ZM323 568L206 302H443L327 568H323ZM452 865L356 743H257L354 865H452Z" />
<glyph unicode="&#xc2;" glyph-name="Acircumflex" d="M377 684L603 172V0H502V155L475 212H174L148 155V0H47V172L273 684H377ZM323 568L206 302H443L327 568H323ZM181 741L284 867H365L469 741H377L328 806H321L273 741H181Z" />
<glyph unicode="&#xc3;" glyph-name="Atilde" d="M377 684L603 172V0H502V155L475 212H174L148 155V0H47V172L273 684H377ZM323 568L206 302H443L327 568H323ZM412 866H487Q487 814 461 781T383 747Q349 747 320 771T273 796Q237 796 237 750H162Q162 802 188
835T266 869Q300 869 329 845T376 820Q412 820 412 866Z" />
<glyph unicode="&#xc4;" glyph-name="Adieresis" d="M377 684L603 172V0H502V155L475 212H174L148 155V0H47V172L273 684H377ZM323 568L206 302H443L327 568H323ZM282 763H184V848H282V763ZM465 763H368V848H465V763Z" />
<glyph unicode="&#xc5;" glyph-name="Aring" d="M377 684L603 172V0H502V155L475 212H174L148 155V0H47V172L273 684H377ZM323 568L206 302H443L327 568H323ZM282 813Q282 795 294 783T324 771Q343 771 355 783T367 813Q367 832 356 844T324 856Q306 856 294 844T282
813ZM228 813Q228 854 255 880T324 907T392 881T420 813Q420 773 393 747T324 720T256 746T228 813Z" />
<glyph unicode="&#xc6;" glyph-name="AE" d="M121 157V0H20V179L298 684H625V591H426V395H577V304H426V94H625V0H325V197H143L121 157ZM320 539L180 277H325V539H320Z" />
<glyph unicode="&#xc7;" glyph-name="Ccedilla" d="M393 -35H312V-53Q312 -82 302 -93T260 -104H199L171 -170H278Q342 -170 367 -145T393 -65V-35ZM572 191V146Q572 70 532 35T408 0H243Q159 0 119 35T79 146V538Q79 614 119 649T243 684H408Q491 684 531 649T572
538V497L471 470V520Q471 559 455 575T395 591H257Q213 591 197 575T180 520V165Q180 126 196 110T257 94H395Q439 94 455 110T471 165V221L572 191Z" />
<glyph unicode="&#xc8;" glyph-name="Egrave" d="M558 0H96V684H558V591H197V395H500V304H197V94H558V0ZM293 743L197 865H295L392 743H293Z" />
<glyph unicode="&#xc9;" glyph-name="Eacute" d="M558 0H96V684H558V591H197V395H500V304H197V94H558V0ZM452 865L356 743H257L354 865H452Z" />
<glyph unicode="&#xca;" glyph-name="Ecircumflex" d="M558 0H96V684H558V591H197V395H500V304H197V94H558V0ZM181 741L284 867H365L469 741H377L328 806H321L273 741H181Z" />
<glyph unicode="&#xcb;" glyph-name="Edieresis" d="M558 0H96V684H558V591H197V395H500V304H197V94H558V0ZM282 763H184V848H282V763ZM465 763H368V848H465V763Z" />
<glyph unicode="&#xcc;" glyph-name="Igrave" d="M84 0V94H274V591H96V684H554V591H375V94H565V0H84ZM293 743L197 865H295L392 743H293Z" />
<glyph unicode="&#xcd;" glyph-name="Iacute" d="M84 0V94H274V591H96V684H554V591H375V94H565V0H84ZM452 865L356 743H257L354 865H452Z" />
<glyph unicode="&#xce;" glyph-name="Icircumflex" d="M84 0V94H274V591H96V684H554V591H375V94H565V0H84ZM182 741L285 867H366L470 741H378L329 806H322L274 741H182Z" />
<glyph unicode="&#xcf;" glyph-name="Idieresis" d="M84 0V94H274V591H96V684H554V591H375V94H565V0H84ZM282 763H184V848H282V763ZM465 763H368V848H465V763Z" />
<glyph unicode="&#xd1;" glyph-name="Ntilde" d="M580 0H482L175 490H170V0H69V684H166L474 187H479V684H580V0ZM412 866H487Q487 814 461 781T383 747Q349 747 320 771T273 796Q237 796 237 750H162Q162 802 188 835T266 869Q300 869 329 845T376 820Q412 820 412 866Z" />
<glyph unicode="&#xd2;" glyph-name="Ograve" d="M418 0H231Q147 0 107 35T67 146V538Q67 614 107 649T231 684H418Q502 684 542 649T582 538V146Q582 70 542 35T418 0ZM244 94H405Q449 94 465 110T481 165V520Q481 559 465 575T405 591H244Q200 591 184 575T168
520V165Q168 126 184 110T244 94ZM293 743L197 865H295L392 743H293Z" />
<glyph unicode="&#xd3;" glyph-name="Oacute" d="M418 0H231Q147 0 107 35T67 146V538Q67 614 107 649T231 684H418Q502 684 542 649T582 538V146Q582 70 542 35T418 0ZM244 94H405Q449 94 465 110T481 165V520Q481 559 465 575T405 591H244Q200 591 184 575T168
520V165Q168 126 184 110T244 94ZM452 865L356 743H257L354 865H452Z" />
<glyph unicode="&#xd4;" glyph-name="Ocircumflex" d="M418 0H231Q147 0 107 35T67 146V538Q67 614 107 649T231 684H418Q502 684 542 649T582 538V146Q582 70 542 35T418 0ZM244 94H405Q449 94 465 110T481 165V520Q481 559 465 575T405 591H244Q200 591 184
575T168 520V165Q168 126 184 110T244 94ZM181 741L284 867H365L469 741H377L328 806H321L273 741H181Z" />
<glyph unicode="&#xd5;" glyph-name="Otilde" d="M418 0H231Q147 0 107 35T67 146V538Q67 614 107 649T231 684H418Q502 684 542 649T582 538V146Q582 70 542 35T418 0ZM244 94H405Q449 94 465 110T481 165V520Q481 559 465 575T405 591H244Q200 591 184 575T168
520V165Q168 126 184 110T244 94ZM412 866H487Q487 814 461 781T383 747Q349 747 320 771T273 796Q237 796 237 750H162Q162 802 188 835T266 869Q300 869 329 845T376 820Q412 820 412 866Z" />
<glyph unicode="&#xd6;" glyph-name="Odieresis" d="M418 0H231Q147 0 107 35T67 146V538Q67 614 107 649T231 684H418Q502 684 542 649T582 538V146Q582 70 542 35T418 0ZM244 94H405Q449 94 465 110T481 165V520Q481 559 465 575T405 591H244Q200 591 184 575T168
520V165Q168 126 184 110T244 94ZM282 763H184V848H282V763ZM465 763H368V848H465V763Z" />
<glyph unicode="&#xd8;" glyph-name="Oslash" d="M16 -82L93 43Q62 75 62 146V538Q62 614 102 649T226 684H423Q462 684 485 678L540 766H634L556 640Q587 606 587 538V146Q587 69 547 35T423 0H226Q186 0 164 6L109 -82H16ZM165 523V235Q165 177 166 167L431
592Q418 594 379 594H242Q198 594 182 578T165 523ZM407 92Q451 92 467 108T484 163V462Q484 504 482 514L220 94Q234 92 278 92H407Z" />
<glyph unicode="&#xd9;" glyph-name="Ugrave" d="M572 684V146Q572 70 532 35T408 0H241Q157 0 117 35T77 146V684H178V165Q178 126 194 110T256 94H395Q439 94 455 110T471 165V684H572ZM293 743L197 865H295L392 743H293Z" />
<glyph unicode="&#xda;" glyph-name="Uacute" d="M572 684V146Q572 70 532 35T408 0H241Q157 0 117 35T77 146V684H178V165Q178 126 194 110T256 94H395Q439 94 455 110T471 165V684H572ZM452 865L356 743H257L354 865H452Z" />
<glyph unicode="&#xdb;" glyph-name="Ucircumflex" d="M572 684V146Q572 70 532 35T408 0H241Q157 0 117 35T77 146V684H178V165Q178 126 194 110T256 94H395Q439 94 455 110T471 165V684H572ZM181 741L284 867H365L469 741H377L328 806H321L273 741H181Z" />
<glyph unicode="&#xdc;" glyph-name="Udieresis" d="M572 684V146Q572 70 532 35T408 0H241Q157 0 117 35T77 146V684H178V165Q178 126 194 110T256 94H395Q439 94 455 110T471 165V684H572ZM282 763H184V848H282V763ZM465 763H368V848H465V763Z" />
<glyph unicode="&#xdf;" glyph-name="germandbls" d="M608 231V146Q608 70 568 35T444 0H317L291 94H431Q475 94 491 110T507 165V231Q507 270 491 286T431 302H325V392H431Q474 392 490 408T507 464V520Q507 559 491 575T431 591H290Q246 591 230 575T214 520V0H113V302H41V392H113V538Q113
614 153 649T277 684H444Q527 684 567 649T608 538V463Q608 414 590 386T531 347Q608 326 608 231Z" />
<glyph unicode="&#xe0;" glyph-name="agrave" d="M538 0H442V42H440Q402 0 309 0H238Q163 0 127 32T90 139V186Q90 259 126 291T238 324H304Q400 324 440 284H442V368Q442 410 425 427T363 445H278Q237 445 222 430T206 381V367L110 392V402Q110 528 270 528H372Q538
528 538 372V0ZM337 244H263Q221 244 204 230T186 178V150Q186 113 203 99T263 84H337Q442 84 442 146V182Q442 244 337 244ZM293 599L197 721H295L392 599H293Z" />
<glyph unicode="&#xe1;" glyph-name="aacute" d="M538 0H442V42H440Q402 0 309 0H238Q163 0 127 32T90 139V186Q90 259 126 291T238 324H304Q400 324 440 284H442V368Q442 410 425 427T363 445H278Q237 445 222 430T206 381V367L110 392V402Q110 528 270 528H372Q538
528 538 372V0ZM337 244H263Q221 244 204 230T186 178V150Q186 113 203 99T263 84H337Q442 84 442 146V182Q442 244 337 244ZM452 721L356 599H257L354 721H452Z" />
<glyph unicode="&#xe2;" glyph-name="acircumflex" d="M538 0H442V42H440Q402 0 309 0H238Q163 0 127 32T90 139V186Q90 259 126 291T238 324H304Q400 324 440 284H442V368Q442 410 425 427T363 445H278Q237 445 222 430T206 381V367L110 392V402Q110 528 270
528H372Q538 528 538 372V0ZM337 244H263Q221 244 204 230T186 178V150Q186 113 203 99T263 84H337Q442 84 442 146V182Q442 244 337 244ZM181 597L284 723H365L469 597H377L328 662H321L273 597H181Z" />
<glyph unicode="&#xe3;" glyph-name="atilde" d="M538 0H442V42H440Q402 0 309 0H238Q163 0 127 32T90 139V186Q90 259 126 291T238 324H304Q400 324 440 284H442V368Q442 410 425 427T363 445H278Q237 445 222 430T206 381V367L110 392V402Q110 528 270 528H372Q538
528 538 372V0ZM337 244H263Q221 244 204 230T186 178V150Q186 113 203 99T263 84H337Q442 84 442 146V182Q442 244 337 244ZM412 718H487Q487 666 461 633T383 599Q349 599 320 623T273 648Q237 648 237 602H162Q162 654 188 687T266 721Q300 721 329 697T376
672Q412 672 412 718Z" />
<glyph unicode="&#xe4;" glyph-name="adieresis" d="M538 0H442V42H440Q402 0 309 0H238Q163 0 127 32T90 139V186Q90 259 126 291T238 324H304Q400 324 440 284H442V368Q442 410 425 427T363 445H278Q237 445 222 430T206 381V367L110 392V402Q110 528 270 528H372Q538
528 538 372V0ZM337 244H263Q221 244 204 230T186 178V150Q186 113 203 99T263 84H337Q442 84 442 146V182Q442 244 337 244ZM282 618H184V703H282V618ZM465 618H368V703H465V618Z" />
<glyph unicode="&#xe5;" glyph-name="aring" d="M538 0H442V42H440Q402 0 309 0H238Q163 0 127 32T90 139V186Q90 259 126 291T238 324H304Q400 324 440 284H442V368Q442 410 425 427T363 445H278Q237 445 222 430T206 381V367L110 392V402Q110 528 270 528H372Q538
528 538 372V0ZM337 244H263Q221 244 204 230T186 178V150Q186 113 203 99T263 84H337Q442 84 442 146V182Q442 244 337 244ZM282 675Q282 657 294 645T324 633Q343 633 355 645T367 675Q367 694 356 706T324 718Q306 718 294 706T282 675ZM228 675Q228 716 255
742T324 769T392 743T420 675Q420 635 393 609T324 582T256 608T228 675Z" />
<glyph unicode="&#xe6;" glyph-name="ae" d="M283 152V244H185Q143 244 129 230T114 180V149Q114 111 127 98T182 84H211Q252 84 267 99T283 152ZM280 324V378Q280 416 265 430T206 445H177Q138 445 125 432T112 383V370L28 395V402Q28 464 58 496T162 528H213Q303
528 327 471H330Q352 528 444 528H485Q564 528 595 489T627 370V244H378V154Q378 115 392 100T445 84H481Q520 84 532 99T545 153V168L627 142V136Q627 67 600 34T495 0H447Q352 0 330 56H327Q303 0 213 0H167Q89 0 56 31T23 140V191Q23 267 56 296T174 324H280ZM378
377V324H545V375Q545 415 533 430T479 445H450Q409 445 394 430T378 377Z" />
<glyph unicode="&#xe7;" glyph-name="ccedilla" d="M393 -35H312V-53Q312 -82 302 -93T260 -104H199L171 -170H278Q342 -170 367 -145T393 -65V-35ZM195 364V165Q195 126 211 110T272 94H375Q419 94 435 110T451 165V195L552 165V146Q552 70 512 35T388 0H258Q174
0 134 35T94 146V382Q94 458 134 493T258 528H388Q471 528 511 493T552 382V356L451 329V364Q451 403 435 419T375 435H272Q228 435 212 419T195 364Z" />
<glyph unicode="&#xe8;" glyph-name="egrave" d="M547 375V233H196V156Q196 117 212 101T272 84H373Q417 84 434 98T451 150V178L547 159V135Q547 62 506 31T378 0H264Q180 0 140 35T100 146V382Q100 458 140 493T264 528H383Q547 528 547 375ZM196 374V310H451V373Q451
412 436 428T375 445H272Q226 445 211 429T196 374ZM293 599L197 721H295L392 599H293Z" />
<glyph unicode="&#xe9;" glyph-name="eacute" d="M547 375V233H196V156Q196 117 212 101T272 84H373Q417 84 434 98T451 150V178L547 159V135Q547 62 506 31T378 0H264Q180 0 140 35T100 146V382Q100 458 140 493T264 528H383Q547 528 547 375ZM196 374V310H451V373Q451
412 436 428T375 445H272Q226 445 211 429T196 374ZM452 721L356 599H257L354 721H452Z" />
<glyph unicode="&#xea;" glyph-name="ecircumflex" d="M547 375V233H196V156Q196 117 212 101T272 84H373Q417 84 434 98T451 150V178L547 159V135Q547 62 506 31T378 0H264Q180 0 140 35T100 146V382Q100 458 140 493T264 528H383Q547 528 547 375ZM196 374V310H451V373Q451
412 436 428T375 445H272Q226 445 211 429T196 374ZM181 597L284 723H365L469 597H377L328 662H321L273 597H181Z" />
<glyph unicode="&#xeb;" glyph-name="edieresis" d="M547 375V233H196V156Q196 117 212 101T272 84H373Q417 84 434 98T451 150V178L547 159V135Q547 62 506 31T378 0H264Q180 0 140 35T100 146V382Q100 458 140 493T264 528H383Q547 528 547 375ZM196 374V310H451V373Q451
412 436 428T375 445H272Q226 445 211 429T196 374ZM282 618H184V703H282V618ZM465 618H368V703H465V618Z" />
<glyph unicode="&#xec;" glyph-name="igrave" d="M81 0V94H289V435H102V528H390V94H568V0H81ZM293 599L197 721H295L392 599H293Z" />
<glyph unicode="&#xed;" glyph-name="iacute" d="M81 0V94H289V435H102V528H390V94H568V0H81ZM452 721L356 599H257L354 721H452Z" />
<glyph unicode="&#xee;" glyph-name="icircumflex" d="M81 0V94H289V435H102V528H390V94H568V0H81ZM181 597L284 723H365L469 597H377L328 662H321L273 597H181Z" />
<glyph unicode="&#xef;" glyph-name="idieresis" d="M81 0V94H289V435H102V528H390V94H568V0H81ZM284 618H186V703H284V618ZM467 618H370V703H467V618Z" />
<glyph unicode="&#xf1;" glyph-name="ntilde" d="M555 0H454V349Q454 395 435 415T370 435H305Q256 435 226 414T195 349V0H94V528H195V481H198Q234 528 328 528H408Q555 528 555 377V0ZM412 718H487Q487 666 461 633T383 599Q349 599 320 623T273 648Q237 648
237 602H162Q162 654 188 687T266 721Q300 721 329 697T376 672Q412 672 412 718Z" />
<glyph unicode="&#xf2;" glyph-name="ograve" d="M392 0H257Q173 0 133 35T93 146V382Q93 458 133 493T257 528H392Q475 528 515 493T556 382V146Q556 70 516 35T392 0ZM271 94H379Q423 94 439 110T455 165V364Q455 403 439 419T379 435H271Q227 435 211 419T194
364V165Q194 126 210 110T271 94ZM293 599L197 721H295L392 599H293Z" />
<glyph unicode="&#xf3;" glyph-name="oacute" d="M392 0H257Q173 0 133 35T93 146V382Q93 458 133 493T257 528H392Q475 528 515 493T556 382V146Q556 70 516 35T392 0ZM271 94H379Q423 94 439 110T455 165V364Q455 403 439 419T379 435H271Q227 435 211 419T194
364V165Q194 126 210 110T271 94ZM452 721L356 599H257L354 721H452Z" />
<glyph unicode="&#xf4;" glyph-name="ocircumflex" d="M392 0H257Q173 0 133 35T93 146V382Q93 458 133 493T257 528H392Q475 528 515 493T556 382V146Q556 70 516 35T392 0ZM271 94H379Q423 94 439 110T455 165V364Q455 403 439 419T379 435H271Q227 435 211
419T194 364V165Q194 126 210 110T271 94ZM181 597L284 723H365L469 597H377L328 662H321L273 597H181Z" />
<glyph unicode="&#xf5;" glyph-name="otilde" d="M392 0H257Q173 0 133 35T93 146V382Q93 458 133 493T257 528H392Q475 528 515 493T556 382V146Q556 70 516 35T392 0ZM271 94H379Q423 94 439 110T455 165V364Q455 403 439 419T379 435H271Q227 435 211 419T194
364V165Q194 126 210 110T271 94ZM412 718H487Q487 666 461 633T383 599Q349 599 320 623T273 648Q237 648 237 602H162Q162 654 188 687T266 721Q300 721 329 697T376 672Q412 672 412 718Z" />
<glyph unicode="&#xf6;" glyph-name="odieresis" d="M392 0H257Q173 0 133 35T93 146V382Q93 458 133 493T257 528H392Q475 528 515 493T556 382V146Q556 70 516 35T392 0ZM271 94H379Q423 94 439 110T455 165V364Q455 403 439 419T379 435H271Q227 435 211 419T194
364V165Q194 126 210 110T271 94ZM282 618H184V703H282V618ZM465 618H368V703H465V618Z" />
<glyph unicode="&#xf7;" glyph-name="divide" d="M567 261H83V354H567V261ZM385 445H265V555H385V445ZM385 60H265V170H385V60Z" />
<glyph unicode="&#xf8;" glyph-name="oslash" d="M18 -82L118 51Q87 82 87 146V382Q87 458 127 493T251 528H398Q440 528 466 516L538 610H632L530 476Q562 442 562 382V146Q562 70 522 35T398 0H251Q205 0 182 11L111 -82H18ZM183 372V205Q183 163 185 149L412
438Q398 443 359 443H259Q215 443 199 427T183 372ZM390 87Q434 87 450 103T466 159V319Q466 357 463 378L238 91Q249 87 295 87H390Z" />
<glyph unicode="&#xf9;" glyph-name="ugrave" d="M92 528H193V181Q193 134 212 114T277 94H346Q395 94 425 115T456 180V528H557V0H456V47H454Q418 0 323 0H239Q92 0 92 151V528ZM293 599L197 721H295L392 599H293Z" />
<glyph unicode="&#xfa;" glyph-name="uacute" d="M92 528H193V181Q193 134 212 114T277 94H346Q395 94 425 115T456 180V528H557V0H456V47H454Q418 0 323 0H239Q92 0 92 151V528ZM452 721L356 599H257L354 721H452Z" />
<glyph unicode="&#xfb;" glyph-name="ucircumflex" d="M92 528H193V181Q193 134 212 114T277 94H346Q395 94 425 115T456 180V528H557V0H456V47H454Q418 0 323 0H239Q92 0 92 151V528ZM181 597L284 723H365L469 597H377L328 662H321L273 597H181Z" />
<glyph unicode="&#xfc;" glyph-name="udieresis" d="M92 528H193V181Q193 134 212 114T277 94H346Q395 94 425 115T456 180V528H557V0H456V47H454Q418 0 323 0H239Q92 0 92 151V528ZM282 618H184V703H282V618ZM465 618H368V703H465V618Z" />
<glyph unicode="&#xff;" glyph-name="ydieresis" d="M560 528H459V180Q459 136 429 115T349 94H274Q228 94 209 114T190 181V528H89V151Q89 0 236 0H326Q420 0 456 47H459V-79Q459 -117 442 -133T381 -150H267Q223 -150 207 -134T190 -79V-55L89 -82V-97Q89 -171
129 -205T253 -240H388Q560 -240 560 -94V528ZM282 618H184V703H282V618ZM465 618H368V703H465V618Z" />
<glyph unicode="&#x131;" glyph-name="dotlessi" d="M81 0V94H289V435H102V528H390V94H568V0H81Z" />
<glyph unicode="&#x152;" glyph-name="OE" d="M627 0H337V40H335Q314 0 229 0H184Q26 0 26 146V538Q26 684 184 684H229Q314 684 335 644H337V684H627V591H428V395H579V304H428V94H627V0ZM203 94H246Q295 94 313 116T332 189V494Q332 544 314 567T249 591H203Q159
591 143 575T127 520V165Q127 126 143 110T203 94Z" />
<glyph unicode="&#x153;" glyph-name="oe" d="M180 84H206Q248 84 265 101T282 160V369Q282 410 265 427T206 445H180Q138 445 123 430T108 376V153Q108 114 123 99T180 84ZM327 56Q303 0 211 0H171Q89 0 56 33T23 143V382Q23 460 56 494T170 528H211Q303 528
327 471H330Q352 528 444 528H485Q564 528 595 489T627 370V244H378V154Q378 115 392 100T445 84H481Q520 84 532 99T545 153V168L627 142V136Q627 67 600 34T495 0H447Q352 0 330 56H327ZM378 377V324H545V375Q545 415 533 430T479 445H450Q409 445 394 430T378
377Z" />
<glyph unicode="&#x178;" glyph-name="Ydieresis" d="M588 497L376 298V0H275V298L62 497V684H163V535L325 379L487 535V684H588V497ZM282 763H184V848H282V763ZM465 763H368V848H465V763Z" />
<glyph unicode="&#x192;" glyph-name="florin" d="M533 342H351V-24Q351 -101 315 -135T195 -170H49L73 -75H174Q218 -75 234 -59T250 -4V342H103V433H250V538Q250 614 290 649T414 684H598L574 591H428Q384 591 368 575T351 520V433H533V342Z" />
<glyph unicode="&#x2c6;" glyph-name="circumflex" d="M181 615L284 741H365L469 615H377L328 680H321L273 615H181Z" />
<glyph unicode="&#x2c7;" glyph-name="caron" d="M284 615L181 741H273L322 676H328L377 741H469L365 615H284Z" />
<glyph unicode="&#x2da;" glyph-name="ring" d="M282 680Q282 662 294 650T324 638Q343 638 355 650T367 680Q367 700 356 711T324 723Q306 723 294 711T282 680ZM228 680Q228 721 255 747T324 774T392 748T420 680Q420 640 393 614T324 587T256 613T228 680Z" />
<glyph unicode="&#x2dc;" glyph-name="tilde" d="M412 736H487Q487 684 461 651T383 617Q349 617 320 641T273 666Q237 666 237 620H162Q162 672 188 705T266 739Q300 739 329 715T376 690Q412 690 412 736Z" />
<glyph unicode="&#x2013;" glyph-name="endash" d="M542 261H108V354H542V261Z" />
<glyph unicode="&#x2014;" glyph-name="emdash" d="M576 261H74V354H576V261Z" />
<glyph unicode="&#x2018;" glyph-name="quoteleft" d="M378 684V572H258V695Q258 742 281 770T351 798H374L392 751H371Q348 751 335 736T322 696V684H378Z" />
<glyph unicode="&#x2019;" glyph-name="quoteright" d="M265 639V751H385V628Q385 581 362 553T292 525H269L251 572H272Q295 572 308 587T321 627V639H265Z" />
<glyph unicode="&#x201a;" glyph-name="quotesinglbase" d="M265 0V112H385V-11Q385 -58 362 -86T292 -114H269L251 -67H272Q295 -67 308 -52T321 -12V0H265Z" />
<glyph unicode="&#x201c;" glyph-name="quotedblleft" d="M299 684V572H179V695Q179 742 202 770T272 798H295L313 751H292Q269 751 256 736T243 696V684H299ZM470 684V572H350V695Q350 742 373 770T443 798H466L484 751H463Q440 751 427 736T414 696V684H470Z" />
<glyph unicode="&#x201d;" glyph-name="quotedblright" d="M179 639V751H299V628Q299 581 276 553T206 525H183L165 572H186Q209 572 222 587T235 627V639H179ZM350 639V751H470V628Q470 581 447 553T377 525H354L336 572H357Q380 572 393 587T406 627V639H350Z" />
<glyph unicode="&#x201e;" glyph-name="quotedblbase" d="M179 0V112H299V-11Q299 -58 276 -86T206 -114H183L165 -67H186Q209 -67 222 -52T235 -12V0H179ZM350 0V112H470V-11Q470 -58 447 -86T377 -114H354L336 -67H357Q380 -67 393 -52T406 -12V0H350Z" />
<glyph unicode="&#x2020;" glyph-name="dagger" d="M587 493H375V0H274V493H62V585H274V766H375V585H587V493Z" />
<glyph unicode="&#x2021;" glyph-name="daggerdbl" d="M375 315H587V223H375V0H274V223H62V315H274V493H62V585H274V766H375V585H587V493H375V315Z" />
<glyph unicode="&#x2022;" glyph-name="bullet" d="M407 359V275Q407 255 398 246T369 237H280Q242 237 242 275V359Q242 397 280 397H369Q407 397 407 359Z" />
<glyph unicode="&#x2026;" glyph-name="ellipsis" d="M152 0H32V112H152V0ZM385 0H265V112H385V0ZM617 0H497V112H617V0Z" />
<glyph unicode="&#x2030;" glyph-name="perthousand" d="M0 230V297L369 463V395L0 230ZM555 -48H484Q440 -48 415 -24T389 40V172Q389 211 414 235T484 260H555Q599 260 624 236T650 172V40Q650 1 625 -23T555 -48ZM498 16H542Q582 16 582 56V158Q582 197 542
197H498Q458 197 458 158V56Q458 16 498 16ZM243 -48H172Q128 -48 103 -24T77 40V172Q77 211 102 235T172 260H243Q287 260 312 236T338 172V40Q338 1 313 -23T243 -48ZM186 16H230Q270 16 270 56V158Q270 197 230 197H186Q146 197 146 158V56Q146 16 186 16ZM166
423H94Q51 423 26 447T0 511V644Q0 683 25 707T94 732H166Q209 732 234 708T260 644V511Q260 472 235 448T166 423ZM108 488H152Q192 488 192 527V629Q192 668 152 668H108Q68 668 68 629V527Q68 488 108 488Z" />
<glyph unicode="&#x2039;" glyph-name="guilsinglleft" d="M210 514H312L442 297L312 80H210L337 297L210 514Z" />
<glyph unicode="&#x203a;" glyph-name="guilsinglright" d="M439 80H337L207 297L337 514H439L312 297L439 80Z" />
<glyph unicode="&#x2044;" glyph-name="fraction" d="M59 -5L555 734L605 696L109 -42L59 -5Z" />
<glyph unicode="&#x20ac;" glyph-name="Euro" d="M24 377V439H110V538Q110 614 150 649T274 684H442Q525 684 565 649T606 538V517L505 490V520Q505 559 489 575T428 591H288Q244 591 228 575T211 520V439H411L393 377H211V316H376L358 255H211V165Q211 126 227
110T288 94H428Q472 94 488 110T505 165V196L606 166V146Q606 70 566 35T442 0H274Q190 0 150 35T110 146V255H24V316H110V377H24Z" />
<glyph unicode="&#x2122;" glyph-name="trademark" d="M640 474H568V715H564L484 579H461L381 715H377V474H305V768H204V474H132V768H10V842H380L471 693H474L565 842H640V474Z" />
</font>
</defs>
</svg>
